<svg id="Layer_1" data-name="Layer 1" xmlns="http://www.w3.org/2000/svg" viewBox="0 0 1000 1000"><defs><style>.cls-1{fill:#303841;}</style></defs><path class="cls-1" d="M300.9,410.5c-59.26,90.68-138.25,133.12-173.2,149.34q-1.47-35.94-3-71.88a366.41,366.41,0,0,0,122-123.9A367.28,367.28,0,0,0,298,181.22l69.12-28.73C369.76,189.08,373,300.2,300.9,410.5Z"/><path class="cls-1" d="M146.35,635.54A370.31,370.31,0,0,0,216.92,754.7c39.1-25.79,151.22-92.34,307.34-86.94,135.77,4.7,232.55,61.31,272.57,88a304.39,304.39,0,0,0,72.1-118.64c-40.53-19-160.55-81.73-235.24-224-62.23-118.54-59.92-229.35-56.25-276.15a324.73,324.73,0,0,0-138.58-.51c3.91,45.6,7.45,159.06-57.28,279.73C306.13,556.83,186.09,617.49,146.35,635.54Z"/><path class="cls-1" d="M272.8,807.27a218.07,218.07,0,0,0,63.83,40.89,372.37,372.37,0,0,1,152.28-40.89c89.6-4.27,157.52,25.31,188.59,41.3a202.27,202.27,0,0,0,65.08-39.63c-32.76-21.12-120.15-71.29-242-69.68C387.41,740.77,306,786.16,272.8,807.27Z"/><path class="cls-1" d="M652.1,153.24c-3.05,38.35-5,128.43,45.25,225C757.78,494.48,855.26,546.2,888.42,562q2.45-37.49,4.87-75c-27.64-15.95-89.11-56.44-132-134.8a350.83,350.83,0,0,1-42.9-166.68q-16.38-8.73-34.16-17.4Q667.8,160.2,652.1,153.24Z"/></svg>